<svg height="512" viewBox="0 0 512 512" width="512" xmlns="http://www.w3.org/2000/svg"><path d="m128 460.88a8 8 0 0 0 -5.96-7.735 91.306 91.306 0 0 1 -22.729-9.416 8 8 0 0 0 -9.688 1.253l-13.543 13.544-22.606-22.606 13.543-13.543a8 8 0 0 0 1.253-9.689 91.258 91.258 0 0 1 -9.414-22.727 8 8 0 0 0 -7.736-5.961h-19.12v-32h19.12a8 8 0 0 0 7.736-5.961 91.258 91.258 0 0 1 9.414-22.727 8 8 0 0 0 -1.253-9.689l-13.543-13.543 22.606-22.606 13.543 13.544a8 8 0 0 0 9.688 1.253 91.306 91.306 0 0 1 22.729-9.416 8 8 0 0 0 5.96-7.735v-19.12h32v19.12a8 8 0 0 0 5.96 7.735 91.306 91.306 0 0 1 22.729 9.416 8 8 0 0 0 9.688-1.253l13.543-13.544 22.606 22.606-13.543 13.543a8 8 0 0 0 -1.253 9.689 91.4 91.4 0 0 1 4.519 8.808l14.611-6.52q-1.1-2.466-2.334-4.893l14.974-14.97a8 8 0 0 0 0-11.314l-33.92-33.92a8 8 0 0 0 -11.314 0l-14.971 14.972a107.111 107.111 0 0 0 -15.295-6.333v-21.142a8 8 0 0 0 -8-8h-48a8 8 0 0 0 -8 8v21.142a107.111 107.111 0 0 0 -15.292 6.333l-14.971-14.975a8 8 0 0 0 -11.314 0l-33.923 33.923a8 8 0 0 0 0 11.314l14.972 14.971a107.327 107.327 0 0 0 -6.331 15.292h-21.141a8 8 0 0 0 -8 8v48a8 8 0 0 0 8 8h21.141a107.327 107.327 0 0 0 6.334 15.292l-14.975 14.971a8 8 0 0 0 0 11.314l33.92 33.92a8 8 0 0 0 11.314 0l14.971-14.972a107.111 107.111 0 0 0 15.295 6.333v21.142a8 8 0 0 0 8 8h38v-16h-30z"/><path d="m144 336a32 32 0 1 0 32 32 32.036 32.036 0 0 0 -32-32zm0 48a16 16 0 1 1 16-16 16.019 16.019 0 0 1 -16 16z"/><path d="m144 424a56 56 0 1 1 49.938-81.41l14.251-7.274a72.016 72.016 0 1 0 -42.068 101.205l-4.928-15.221a55.737 55.737 0 0 1 -17.193 2.7z"/><path d="m447.923 338.159-42.591-6.041-21.332-16.102v-18.281a88.326 88.326 0 0 0 40-73.735v-8a31.97 31.97 0 0 0 24.524-52.516 25.692 25.692 0 0 0 7.476-18.148c0-13.805-10.764-25.058-24.09-25.323a91.927 91.927 0 0 0 -66.416-84.424 32 32 0 0 0 -58.988 0 91.926 91.926 0 0 0 -66.416 84.424c-13.326.265-24.09 11.519-24.09 25.324a25.689 25.689 0 0 0 7.5 18.172 31.966 31.966 0 0 0 24.5 52.491v8a88.326 88.326 0 0 0 40 73.735v18.28s-24.215 18.361-24.553 18.735l-43.164 9.259a53.56 53.56 0 0 0 -17.21 6.9 56.209 56.209 0 0 0 -27.073 47.891v97.2h16v-97.2a40.165 40.165 0 0 1 19.407-34.236 37.838 37.838 0 0 1 12.187-4.9l36.666-7.846 2.956-.642 8.907 50.222a8 8 0 0 0 11.993 5.463l33.459-20.075 10.425 15.636v93.578h16v-93.578l10.425-15.637 33.459 20.075a8 8 0 0 0 11.993-5.463l9.323-52.57 36.446 5.173a40.293 40.293 0 0 1 34.354 39.6v102.4h16v-102.4a56.387 56.387 0 0 0 -48.077-55.441zm-102.987 34.015-8.936 13.404-8.936-13.4-23.064-53.82v-12.394a87.842 87.842 0 0 0 64 0v12.394zm-80.936-196.174a7.772 7.772 0 0 1 .813-3.449l21.187 1.583c16.589 1.24 33.3 1.859 50 1.859s33.413-.619 50-1.859l21.185-1.583a7.772 7.772 0 0 1 .815 3.449v32a8.009 8.009 0 0 1 -8 8h-32a6.9 6.9 0 0 1 -5.759-3.1l-7.141-10.638a22.9 22.9 0 0 0 -38.136-.082l-7.255 10.8a6.851 6.851 0 0 1 -5.709 3.02h-32a8.009 8.009 0 0 1 -8-8zm171.3 19.3a15.891 15.891 0 0 1 -11.3 4.7v-28.706l8.765-.655a15.953 15.953 0 0 1 2.535 24.661zm-115.3-147.3a16 16 0 0 1 32 0v40h-32zm-48 29.266v26.734h16v-41.992a76.171 76.171 0 0 1 16-8.685v42.677a8 8 0 0 0 8 8h48a8 8 0 0 0 8-8v-42.677a76.22 76.22 0 0 1 16 8.685v41.992h16v-26.735a75.309 75.309 0 0 1 15.9 42.735h-159.8a75.3 75.3 0 0 1 15.9-42.734zm-31.429 58.734h190.858c4.726 0 8.571 4.188 8.571 9.337 0 4.888-3.508 8.979-7.986 9.314l-47.2 3.528a657.22 657.22 0 0 1 -97.62 0l-47.2-3.528c-4.479-.335-7.987-4.426-7.987-9.315-.007-5.148 3.838-9.336 8.564-9.336zm-3.871 59.3a15.9 15.9 0 0 1 2.6-24.659l8.7.649v28.71a16.105 16.105 0 0 1 -11.3-4.7zm27.627 35.43a23.907 23.907 0 0 0 7.673 1.27h32a22.667 22.667 0 0 0 19.041-10.18l7.255-10.8a6.9 6.9 0 0 1 11.463.082l7.146 10.638a22.709 22.709 0 0 0 19.095 10.26h32a23.907 23.907 0 0 0 7.676-1.266 71.991 71.991 0 0 1 -143.352 0zm21.524 156.428-7.739-43.635 14.56-10.99 17.227 40.2zm100.3 0-24.051-14.426 17.227-40.2 14.56 10.99z"/><path d="m296 424h16v16h-16z"/><path d="m296 480h16v16h-16z"/><path d="m362.319 251.1-4.638-15.313a99.062 99.062 0 0 1 -28.747 4.213h-16.934v16h16.934a115.037 115.037 0 0 0 33.385-4.9z"/><path d="m424 464h-48v16h48v16h16v-72h-16z"/><path d="m292 200a12 12 0 1 0 -12-12 12.013 12.013 0 0 0 12 12z"/><path d="m380 200a12 12 0 1 0 -12-12 12.013 12.013 0 0 0 12 12z"/><path d="m248 464v-40h-16v72h16v-16h48v-16z"/></svg>