<svg xmlns="http://www.w3.org/2000/svg" width="1440" height="600"><path d="M833,133L825,-2L374,225Z" fill="#8cb2d4" stroke="#8cb2d4" stroke-width="1.51"/><path d="M825,-2L302,-1L374,225Z" fill="#9db9d8" stroke="#9db9d8" stroke-width="1.51"/><path d="M825,-2L370,-141L302,-1Z" fill="#a9bedc" stroke="#a9bedc" stroke-width="1.51"/><path d="M374,225L627,539L833,133Z" fill="#7cacd1" stroke="#7cacd1" stroke-width="1.51"/><path d="M825,-2L514,-450L370,-141Z" fill="#b1c3df" stroke="#b1c3df" stroke-width="1.51"/><path d="M370,-141L-98,-245L302,-1Z" fill="#c3cae3" stroke="#c3cae3" stroke-width="1.51"/><path d="M374,225L142,457L627,539Z" fill="#81acd1" stroke="#81acd1" stroke-width="1.51"/><path d="M302,-1L142,457L374,225Z" fill="#9bb8d9" stroke="#9bb8d9" stroke-width="1.51"/><path d="M825,-2L787,-583L514,-450Z" fill="#b1c7e0" stroke="#b1c7e0" stroke-width="1.51"/><path d="M833,133L1119,-227L825,-2Z" fill="#8bb0d3" stroke="#8bb0d3" stroke-width="1.51"/><path d="M1290,390L1119,-227L833,133Z" fill="#73a5cd" stroke="#73a5cd" stroke-width="1.51"/><path d="M514,-450L242,-479L370,-141Z" fill="#c7d0e6" stroke="#c7d0e6" stroke-width="1.51"/><path d="M-302,178L29,482L142,457Z" fill="#9ebad9" stroke="#9ebad9" stroke-width="1.51"/><path d="M1284,519L1290,390L833,133Z" fill="#5097c5" stroke="#5097c5" stroke-width="1.51"/><path d="M417,1105L735,747L627,539Z" fill="#578dbe" stroke="#578dbe" stroke-width="1.51"/><path d="M142,457L417,1105L627,539Z" fill="#6a98c7" stroke="#6a98c7" stroke-width="1.51"/><path d="M-302,178L142,457L302,-1Z" fill="#abbfdd" stroke="#abbfdd" stroke-width="1.51"/><path d="M1119,-227L787,-583L825,-2Z" fill="#a0bcda" stroke="#a0bcda" stroke-width="1.51"/><path d="M514,-450L787,-583L242,-479Z" fill="#c5d2e7" stroke="#c5d2e7" stroke-width="1.51"/><path d="M1119,-227L1171,-349L787,-583Z" fill="#a0bdda" stroke="#a0bdda" stroke-width="1.51"/><path d="M1780,-227L1171,-349L1119,-227Z" fill="#8da8d0" stroke="#8da8d0" stroke-width="1.51"/><path d="M242,-479L-98,-245L370,-141Z" fill="#cfd2e7" stroke="#cfd2e7" stroke-width="1.51"/><path d="M1284,519L833,133L627,539Z" fill="#5a9cc8" stroke="#5a9cc8" stroke-width="1.51"/><path d="M735,747L1284,519L627,539Z" fill="#4791c2" stroke="#4791c2" stroke-width="1.51"/><path d="M-98,-245L-297,-36L302,-1Z" fill="#cccfe5" stroke="#cccfe5" stroke-width="1.51"/><path d="M-297,-36L-302,178L302,-1Z" fill="#c2cbe3" stroke="#c2cbe3" stroke-width="1.51"/><path d="M1469,645L1501,440L1284,519Z" fill="#2580b8" stroke="#2580b8" stroke-width="1.51"/><path d="M1284,519L1501,440L1290,390Z" fill="#3887bd" stroke="#3887bd" stroke-width="1.51"/><path d="M1290,390L1780,-227L1119,-227Z" fill="#769cc9" stroke="#769cc9" stroke-width="1.51"/><path d="M-302,178L-210,696L29,482Z" fill="#9bb9d8" stroke="#9bb9d8" stroke-width="1.51"/><path d="M72,1044L417,1105L142,457Z" fill="#7193be" stroke="#7193be" stroke-width="1.51"/><path d="M72,1044L142,457L29,482Z" fill="#81a3cd" stroke="#81a3cd" stroke-width="1.51"/><path d="M1111,1186L1469,645L1284,519Z" fill="#1675b1" stroke="#1675b1" stroke-width="1.51"/><path d="M1111,1186L1284,519L735,747Z" fill="#297eb3" stroke="#297eb3" stroke-width="1.51"/><path d="M-210,696L72,1044L29,482Z" fill="#84a0cc" stroke="#84a0cc" stroke-width="1.51"/><path d="M417,1105L893,1168L735,747Z" fill="#4a7faa" stroke="#4a7faa" stroke-width="1.51"/><path d="M-297,-36L-642,186L-302,178Z" fill="#c7d1e6" stroke="#c7d1e6" stroke-width="1.51"/><path d="M-302,178L-650,551L-210,696Z" fill="#a1bedb" stroke="#a1bedb" stroke-width="1.51"/><path d="M-98,-245L-422,-448L-297,-36Z" fill="#e0deed" stroke="#e0deed" stroke-width="1.51"/><path d="M242,-479L-422,-448L-98,-245Z" fill="#e2dfee" stroke="#e2dfee" stroke-width="1.51"/><path d="M787,-583L-422,-448L242,-479Z" fill="#d8dbeb" stroke="#d8dbeb" stroke-width="1.51"/><path d="M417,1105L-100,1081L893,1168Z" fill="#5a7da1" stroke="#5a7da1" stroke-width="1.51"/><path d="M72,1044L-100,1081L417,1105Z" fill="#6e87aa" stroke="#6e87aa" stroke-width="1.51"/><path d="M-210,696L-100,1081L72,1044Z" fill="#7f97bd" stroke="#7f97bd" stroke-width="1.51"/><path d="M-422,-448L-602,-172L-297,-36Z" fill="#e4e1ef" stroke="#e4e1ef" stroke-width="1.51"/><path d="M-210,696L-662,1059L-100,1081Z" fill="#899ec1" stroke="#899ec1" stroke-width="1.51"/><path d="M893,1168L1111,1186L735,747Z" fill="#3375a2" stroke="#3375a2" stroke-width="1.51"/><path d="M-602,-172L-642,186L-297,-36Z" fill="#d5d9eb" stroke="#d5d9eb" stroke-width="1.51"/><path d="M1501,440L1780,-227L1290,390Z" fill="#598ebe" stroke="#598ebe" stroke-width="1.51"/><path d="M1171,-349L1789,-485L787,-583Z" fill="#9bb6d8" stroke="#9bb6d8" stroke-width="1.51"/><path d="M1990,390L1780,-227L1501,440Z" fill="#5586b2" stroke="#5586b2" stroke-width="1.51"/><path d="M-642,186L-650,551L-302,178Z" fill="#b7cbe3" stroke="#b7cbe3" stroke-width="1.51"/><path d="M1780,-227L1789,-485L1171,-349Z" fill="#8ca3c9" stroke="#8ca3c9" stroke-width="1.51"/><path d="M1994,546L1990,390L1501,440Z" fill="#2f76a6" stroke="#2f76a6" stroke-width="1.51"/><path d="M1111,1186L1599,1032L1469,645Z" fill="#0a68a1" stroke="#0a68a1" stroke-width="1.51"/><path d="M1789,-485L1906,-486L787,-583Z" fill="#96acd1" stroke="#96acd1" stroke-width="1.51"/><path d="M1780,-227L1906,-486L1789,-485Z" fill="#899dbd" stroke="#899dbd" stroke-width="1.51"/><path d="M2092,-160L1906,-486L1780,-227Z" fill="#8093b3" stroke="#8093b3" stroke-width="1.51"/><path d="M1994,546L1501,440L1469,645Z" fill="#2178ad" stroke="#2178ad" stroke-width="1.51"/><path d="M1878,870L1994,546L1469,645Z" fill="#106aa1" stroke="#106aa1" stroke-width="1.51"/><path d="M1599,1032L1878,870L1469,645Z" fill="#04649e" stroke="#04649e" stroke-width="1.51"/><path d="M1994,546L2092,-160L1990,390Z" fill="#48769d" stroke="#48769d" stroke-width="1.51"/><path d="M1990,390L2092,-160L1780,-227Z" fill="#6785a9" stroke="#6785a9" stroke-width="1.51"/><path d="M-642,186L-662,1059L-650,551Z" fill="#a0bbda" stroke="#a0bbda" stroke-width="1.51"/><path d="M-650,551L-662,1059L-210,696Z" fill="#94abd2" stroke="#94abd2" stroke-width="1.51"/><path d="M-100,1081L-662,1059L893,1168Z" fill="#7187a8" stroke="#7187a8" stroke-width="1.51"/><path d="M893,1168L-662,1059L1111,1186Z" fill="#567a9d" stroke="#567a9d" stroke-width="1.51"/></svg>