<?xml version="1.0" encoding="utf-8"?>
<svg version="1.1" xmlns="http://www.w3.org/2000/svg" xmlns:xlink="http://www.w3.org/1999/xlink" x="0px" y="0px"
   viewBox="0 0 1451.2 653.4" style="enable-background:new 0 0 1451.2 653.4;" xml:space="preserve">
<style type="text/css">
  .st0{fill:#24292E;}
</style>
<g id="generic-bg">
  <title>line-background</title>
  <path class="st0" d="M223.6,92.3h-56.3c-0.8,0-1.5-0.7-1.5-1.5s0.7-1.5,1.5-1.5h56.3c0.8,0,1.5,0.7,1.5,1.5S224.5,92.3,223.6,92.3z
    "/>
  <path class="st0" d="M98.7,112.6H54.6c-0.8,0-1.5-0.7-1.5-1.5s0.7-1.5,1.5-1.5h44.1c0.8,0,1.5,0.7,1.5,1.5S99.6,112.6,98.7,112.6z"
    />
  <path class="st0" d="M154.5,112.6h-12.8c-0.8,0-1.5-0.7-1.5-1.5s0.7-1.5,1.5-1.5h12.8c0.8,0,1.5,0.7,1.5,1.5
    S155.4,112.6,154.5,112.6z"/>
  <path class="st0" d="M51.3,51.4H8.1c-0.8,0-1.5-0.7-1.5-1.5l0,0c0-0.8,0.7-1.5,1.5-1.5h43.2c0.8,0,1.5,0.7,1.5,1.5
    S52.1,51.4,51.3,51.4z"/>
  <path class="st0" d="M89.6,51.4H67.4c-0.8,0-1.5-0.7-1.5-1.5s0.7-1.5,1.5-1.5l0,0h22.2c0.8,0,1.5,0.7,1.5,1.5S90.4,51.4,89.6,51.4z
    "/>
  <path class="st0" d="M192.1,51.4h-22.2c-0.8,0-1.5-0.7-1.5-1.5s0.7-1.5,1.5-1.5l0,0h22.2c0.8,0,1.5,0.7,1.5,1.5
    S193,51.4,192.1,51.4z"/>
  <path class="st0" d="M310.3,51.4h-14.3c-0.8,0-1.5-0.7-1.5-1.5s0.7-1.5,1.5-1.5h14.3c0.8,0,1.5,0.7,1.5,1.5S311.2,51.4,310.3,51.4z
    "/>
  <path class="st0" d="M361.1,51.4h-33.7c-0.8,0-1.5-0.7-1.5-1.5s0.7-1.5,1.5-1.5h33.7c0.8,0,1.5,0.7,1.5,1.5S361.9,51.4,361.1,51.4z
    "/>
  <path class="st0" d="M77.1,71.7H61.6c-0.8,0-1.5-0.7-1.5-1.5s0.7-1.5,1.5-1.5h15.5c0.8,0,1.5,0.7,1.5,1.5S77.9,71.7,77.1,71.7z"/>
  <path class="st0" d="M110.4,153.4H91.9c-0.8,0-1.5-0.7-1.5-1.5s0.7-1.5,1.5-1.5h18.5c0.8,0,1.5,0.7,1.5,1.5
    S111.3,153.4,110.4,153.4z"/>
  <path class="st0" d="M88.4,173.7H35.7c-0.8,0-1.5-0.7-1.5-1.5s0.7-1.5,1.5-1.5h52.7c0.8,0,1.5,0.7,1.5,1.5S89.2,173.7,88.4,173.7z"
    />
  <path class="st0" d="M106.3,132.9H91.1c-0.8,0-1.5-0.7-1.5-1.5s0.7-1.5,1.5-1.5h15.2c0.8,0,1.5,0.7,1.5,1.5
    S107.1,132.9,106.3,132.9z"/>
  <path class="st0" d="M45.6,234.8H7.1c-0.8,0-1.5-0.7-1.5-1.5s0.7-1.5,1.5-1.5h38.6c0.8,0,1.5,0.7,1.5,1.5
    C47.1,234.2,46.5,234.9,45.6,234.8L45.6,234.8z"/>
  <path class="st0" d="M101.7,234.8h-22c-0.8,0-1.5-0.7-1.5-1.5s0.7-1.5,1.5-1.5h22c0.8,0,1.5,0.7,1.5,1.5S102.5,234.8,101.7,234.8z"
    />
  <path class="st0" d="M195.1,234.8h-16.8c-0.8,0-1.5-0.7-1.5-1.5s0.7-1.5,1.5-1.5h16.8c0.8,0,1.5,0.7,1.5,1.5S196,234.8,195.1,234.8
    z"/>
  <path class="st0" d="M250.7,234.8h-38.8c-0.8,0-1.5-0.7-1.5-1.5s0.7-1.5,1.5-1.5h38.8c0.8,0,1.5,0.6,1.5,1.5
    C252.2,234.1,251.6,234.8,250.7,234.8C250.7,234.8,250.7,234.8,250.7,234.8z"/>
  <path class="st0" d="M165.7,255.2h-23.3c-0.8,0-1.5-0.7-1.5-1.5s0.7-1.5,1.5-1.5h23.3c0.8,0,1.5,0.7,1.5,1.5
    S166.5,255.2,165.7,255.2z"/>
  <path class="st0" d="M127.9,194h-15.7c-0.8,0-1.5-0.7-1.5-1.5s0.7-1.5,1.5-1.5h15.7c0.8,0,1.5,0.7,1.5,1.5S128.7,194,127.9,194z"/>
  <path class="st0" d="M191.6,194h-45.3c-0.8,0-1.5-0.7-1.5-1.5s0.7-1.5,1.5-1.5h45.3c0.8,0,1.5,0.7,1.5,1.5S192.5,194,191.6,194z"/>
  <path class="st0" d="M229.8,194h-23.5c-0.8,0-1.5-0.7-1.5-1.5s0.7-1.5,1.5-1.5h23.5c0.8,0,1.5,0.7,1.5,1.5S230.6,194,229.8,194z"/>
  <path class="st0" d="M210.3,214.3h-42.9c-0.8,0-1.5-0.7-1.5-1.5s0.7-1.5,1.5-1.5h42.9c0.8,0,1.5,0.7,1.5,1.5
    S211.1,214.3,210.3,214.3z"/>
  <path class="st0" d="M281.8,214.3h-56.4c-0.8,0-1.5-0.7-1.5-1.5s0.7-1.5,1.5-1.5h56.4c0.8,0,1.5,0.7,1.5,1.5
    C283.3,213.6,282.6,214.3,281.8,214.3L281.8,214.3z"/>
  <path class="st0" d="M35.9,214.3H14.6c-0.8,0-1.5-0.7-1.5-1.5s0.7-1.5,1.5-1.5h21.3c0.8,0,1.5,0.7,1.5,1.5S36.7,214.3,35.9,214.3z"
    />
  <path class="st0" d="M74.5,296H38.4c-0.8,0-1.5-0.7-1.5-1.5s0.7-1.5,1.5-1.5l0,0h36.2c0.8,0,1.5,0.7,1.5,1.5S75.4,296,74.5,296z"/>
  <path class="st0" d="M121.1,296H90.3c-0.8,0-1.5-0.7-1.5-1.5s0.7-1.5,1.5-1.5h30.8c0.8,0,1.5,0.7,1.5,1.5S121.9,296,121.1,296z"/>
  <path class="st0" d="M218.7,296h-35.1c-0.8,0-1.5-0.7-1.5-1.5s0.7-1.5,1.5-1.5h35.1c0.8,0,1.5,0.7,1.5,1.5S219.6,296,218.7,296z"/>
  <path class="st0" d="M94.7,275.4H70.8c-0.8,0-1.5-0.7-1.5-1.5s0.7-1.5,1.5-1.5h23.8c0.8,0,1.5,0.7,1.5,1.5S95.5,275.4,94.7,275.4z"
    />
  <path class="st0" d="M117.3,275.4h-11c-0.8,0-1.5-0.7-1.5-1.5s0.7-1.5,1.5-1.5h11c0.8,0,1.5,0.7,1.5,1.5S118.1,275.4,117.3,275.4z"
    />
  <path class="st0" d="M130.5,377.4h-26.8c-0.8,0-1.5-0.7-1.5-1.5s0.7-1.5,1.5-1.5h26.8c0.8,0,1.5,0.7,1.5,1.5
    C132,376.7,131.3,377.4,130.5,377.4z"/>
  <path class="st0" d="M161.8,397.7H153c-0.8,0-1.5-0.7-1.5-1.5s0.7-1.5,1.5-1.5h8.9c0.8,0,1.5,0.7,1.5,1.5S162.6,397.7,161.8,397.7z
    "/>
  <path class="st0" d="M53.6,336.6H8.1c-0.8,0-1.5-0.7-1.5-1.5s0.7-1.5,1.5-1.5h45.6c0.8,0,1.5,0.7,1.5,1.5
    C55.1,335.9,54.5,336.6,53.6,336.6z"/>
  <path class="st0" d="M184.1,336.6h-17.2c-0.8,0-1.5-0.7-1.5-1.5s0.7-1.5,1.5-1.5h17.2c0.8,0,1.5,0.7,1.5,1.5
    S184.9,336.6,184.1,336.6z"/>
  <path class="st0" d="M78.5,356.9H58.1c-0.8,0-1.5-0.7-1.5-1.5s0.7-1.5,1.5-1.5h20.4c0.8,0,1.5,0.7,1.5,1.5S79.3,356.9,78.5,356.9z"
    />
  <path class="st0" d="M130.5,356.9H92.7c-0.8,0-1.5-0.7-1.5-1.5s0.7-1.5,1.5-1.5h37.9c0.8,0,1.5,0.7,1.5,1.5
    S131.3,356.9,130.5,356.9L130.5,356.9z"/>
  <path class="st0" d="M181.7,356.9h-24.3c-0.8,0-1.5-0.7-1.5-1.5s0.7-1.5,1.5-1.5h24.3c0.8,0,1.5,0.7,1.5,1.5
    S182.6,356.9,181.7,356.9z"/>
  <path class="st0" d="M200.3,356.9h-9c-0.8,0-1.5-0.7-1.5-1.5s0.7-1.5,1.5-1.5h9c0.8,0,1.5,0.7,1.5,1.5S201.1,356.9,200.3,356.9z"/>
  <path class="st0" d="M119.8,438.5H79.6c-0.8,0-1.5-0.7-1.5-1.5s0.7-1.5,1.5-1.5h40.2c0.8,0,1.5,0.7,1.5,1.5
    C121.3,437.9,120.6,438.5,119.8,438.5z"/>
  <path class="st0" d="M62.4,438.4h-38c-0.8,0-1.5-0.7-1.5-1.5s0.7-1.5,1.5-1.5h38c0.8,0,1.5,0.7,1.5,1.5S63.2,438.4,62.4,438.4z"/>
  <path class="st0" d="M70.3,458.8H58.7c-0.8,0-1.5-0.7-1.5-1.5s0.7-1.5,1.5-1.5h11.6c0.8,0,1.5,0.7,1.5,1.5S71.2,458.8,70.3,458.8z"
    />
  <path class="st0" d="M206.3,458.8h-23.1c-0.8,0-1.5-0.7-1.5-1.5s0.7-1.5,1.5-1.5h23.1c0.8,0,1.5,0.7,1.5,1.5
    C207.8,458.2,207.1,458.8,206.3,458.8z"/>
  <path class="st0" d="M81,418H64.7c-0.8,0-1.5-0.7-1.5-1.5s0.7-1.5,1.5-1.5H81c0.8,0,1.5,0.7,1.5,1.5S81.8,418,81,418z"/>
  <path class="st0" d="M104.6,418h-8.8c-0.8,0-1.5-0.7-1.5-1.5s0.7-1.5,1.5-1.5h8.8c0.8,0,1.5,0.7,1.5,1.5S105.5,418,104.6,418z"/>
  <path class="st0" d="M112.9,520H84.1c-0.8,0-1.5-0.7-1.5-1.5s0.7-1.5,1.5-1.5h28.7c0.8,0,1.5,0.7,1.5,1.5S113.7,520,112.9,520z"/>
  <path class="st0" d="M191.2,520h-63c-0.8,0-1.5-0.7-1.5-1.5s0.7-1.5,1.5-1.5l0,0h63c0.8,0,1.5,0.7,1.5,1.5S192,520,191.2,520z"/>
  <path class="st0" d="M64.7,540.3H51.3c-0.8,0-1.5-0.7-1.5-1.5s0.7-1.5,1.5-1.5h13.5c0.8,0,1.5,0.7,1.5,1.5S65.6,540.3,64.7,540.3z"
    />
  <path class="st0" d="M150.6,479.2h-40.2c-0.8,0-1.5-0.7-1.5-1.5s0.7-1.5,1.5-1.5h40.2c0.8,0,1.5,0.7,1.5,1.5
    S151.4,479.2,150.6,479.2z"/>
  <path class="st0" d="M41,499.5H8.1c-0.8,0-1.5-0.7-1.5-1.5s0.7-1.5,1.5-1.5H41c0.8,0,1.5,0.7,1.5,1.5S41.8,499.5,41,499.5z"/>
  <path class="st0" d="M133.1,499.5H98.3c-0.8,0-1.5-0.7-1.5-1.5s0.7-1.5,1.5-1.5h34.7c0.8,0,1.5,0.7,1.5,1.5
    S133.9,499.5,133.1,499.5z"/>
  <path class="st0" d="M153.9,499.5h-6.7c-0.8,0-1.5-0.7-1.5-1.5s0.7-1.5,1.5-1.5h6.7c0.8,0,1.5,0.7,1.5,1.5S154.7,499.5,153.9,499.5
    z"/>
  <path class="st0" d="M158.9,581.1h-32.6c-0.8,0-1.5-0.7-1.5-1.5s0.7-1.5,1.5-1.5l0,0h32.6c0.8,0,1.5,0.7,1.5,1.5
    S159.7,581.1,158.9,581.1z"/>
  <path class="st0" d="M184.9,601.2h-13.5c-0.8,0-1.5-0.7-1.5-1.5s0.7-1.5,1.5-1.5h13.5c0.8,0,1.5,0.7,1.5,1.5
    S185.8,601.2,184.9,601.2z"/>
  <path class="st0" d="M141.9,601.4H97.8c-0.8,0-1.5-0.7-1.5-1.5s0.7-1.5,1.5-1.5h44.1c0.8,0,1.5,0.7,1.5,1.5
    S142.7,601.4,141.9,601.4z"/>
  <path class="st0" d="M34.6,560.6H1.5c-0.8,0-1.5-0.7-1.5-1.5s0.7-1.5,1.5-1.5h33.1c0.8,0,1.5,0.7,1.5,1.5S35.4,560.6,34.6,560.6z"
    />
  <path class="st0" d="M131.1,560.6h-19.6c-0.8,0-1.5-0.7-1.5-1.5s0.7-1.5,1.5-1.5h19.6c0.8,0,1.5,0.7,1.5,1.5
    S131.9,560.6,131.1,560.6z"/>
  <path class="st0" d="M166.9,560.6h-22.1c-0.8,0-1.5-0.7-1.5-1.5s0.7-1.5,1.5-1.5h22.1c0.8,0,1.5,0.7,1.5,1.5
    S167.7,560.6,166.9,560.6z"/>
  <path class="st0" d="M368.9,601.4H329c-0.8,0-1.5-0.7-1.5-1.5s0.7-1.5,1.5-1.5h39.9c0.8,0,1.5,0.7,1.5,1.5
    C370.4,600.8,369.7,601.4,368.9,601.4z"/>
  <path class="st0" d="M1338.1,92.3h-51.7c-0.8,0-1.5-0.7-1.5-1.5s0.7-1.5,1.5-1.5h51.7c0.8,0,1.5,0.7,1.5,1.5
    S1338.9,92.3,1338.1,92.3z"/>
  <path class="st0" d="M1274.7,92.3h-31.3c-0.8,0-1.5-0.7-1.5-1.5s0.7-1.5,1.5-1.5h31.3c0.8,0,1.5,0.7,1.5,1.5
    S1275.6,92.3,1274.7,92.3z"/>
  <path class="st0" d="M1195,92.3h-28.3c-0.8,0-1.5-0.7-1.5-1.5s0.7-1.5,1.5-1.5h28.3c0.8,0,1.5,0.7,1.5,1.5S1195.8,92.3,1195,92.3z"
    />
  <path class="st0" d="M1446,92.3h-24.9c-0.8,0-1.5-0.7-1.5-1.5s0.7-1.5,1.5-1.5h24.9c0.8,0,1.5,0.7,1.5,1.5
    C1447.5,91.6,1446.8,92.3,1446,92.3z"/>
  <path class="st0" d="M1288.1,112.6h-15.6c-0.8,0-1.5-0.7-1.5-1.5s0.7-1.5,1.5-1.5h15.6c0.8,0,1.5,0.7,1.5,1.5
    S1288.9,112.6,1288.1,112.6z"/>
  <path class="st0" d="M1374.6,51.4h-63.6c-0.8,0-1.5-0.7-1.5-1.5s0.7-1.5,1.5-1.5h63.6c0.8,0,1.5,0.7,1.5,1.5
    C1376.1,50.8,1375.5,51.4,1374.6,51.4z"/>
  <path class="st0" d="M1195.3,51.4h-15.4c-0.8,0-1.5-0.7-1.5-1.5s0.7-1.5,1.5-1.5h15.4c0.8,0,1.5,0.7,1.5,1.5
    S1196.2,51.4,1195.3,51.4z"/>
  <path class="st0" d="M1166.6,51.4h-96.8c-0.8,0-1.5-0.7-1.5-1.5s0.7-1.5,1.5-1.5h96.8c0.8,0,1.5,0.7,1.5,1.5
    S1167.5,51.4,1166.6,51.4z"/>
  <path class="st0" d="M1400.6,51.4h-12.9c-0.8,0-1.5-0.7-1.5-1.5s0.7-1.5,1.5-1.5h12.9c0.8,0,1.5,0.7,1.5,1.5
    S1401.5,51.4,1400.6,51.4z"/>
  <path class="st0" d="M1139.3,71.7h-22.2c-0.8,0-1.5-0.7-1.5-1.5s0.7-1.5,1.5-1.5h22.3c0.8,0,1.5,0.7,1.5,1.5
    S1140.1,71.7,1139.3,71.7z"/>
  <path class="st0" d="M1352.2,71.7h-29.1c-0.8,0-1.5-0.7-1.5-1.5s0.7-1.5,1.5-1.5h29.1c0.8,0,1.5,0.7,1.5,1.5S1353,71.7,1352.2,71.7
    z"/>
  <path class="st0" d="M1322.5,31.1h-30.6c-0.8,0-1.5-0.7-1.5-1.5s0.7-1.5,1.5-1.5h30.6c0.8,0,1.5,0.7,1.5,1.5
    S1323.3,31.1,1322.5,31.1z"/>
  <path class="st0" d="M1149.9,31.1h-37.3c-0.8,0-1.5-0.7-1.5-1.5s0.7-1.5,1.5-1.5h37.3c0.8,0,1.5,0.7,1.5,1.5
    C1151.4,30.4,1150.7,31.1,1149.9,31.1L1149.9,31.1z"/>
  <path class="st0" d="M1095.1,31.1h-114c-0.8,0-1.5-0.7-1.5-1.5s0.7-1.5,1.5-1.5h114c0.8,0,1.5,0.7,1.5,1.5S1095.9,31.1,1095.1,31.1
    z"/>
  <path class="st0" d="M398.8,31.1h-78.7c-0.8,0-1.5-0.7-1.5-1.5s0.7-1.5,1.5-1.5h78.7c0.8,0,1.5,0.7,1.5,1.5
    C400.3,30.4,399.6,31.1,398.8,31.1z"/>
  <path class="st0" d="M454.5,31.1h-41.8c-0.8,0-1.5-0.7-1.5-1.5s0.7-1.5,1.5-1.5h41.8c0.8,0,1.5,0.7,1.5,1.5S455.3,31.1,454.5,31.1
    L454.5,31.1z"/>
  <path class="st0" d="M1332.1,153.4h-9.1c-0.8,0-1.5-0.7-1.5-1.5s0.7-1.5,1.5-1.5h9.1c0.8,0,1.5,0.7,1.5,1.5
    S1333,153.4,1332.1,153.4z"/>
  <path class="st0" d="M1384,153.4h-35.3c-0.8,0-1.5-0.7-1.5-1.5s0.7-1.5,1.5-1.5h35.3c0.8,0,1.5,0.7,1.5,1.5
    S1384.8,153.4,1384,153.4z"/>
  <path class="st0" d="M1290.4,173.7h-23.8c-0.8,0-1.5-0.7-1.5-1.5s0.7-1.5,1.5-1.5h23.8c0.8,0,1.5,0.7,1.5,1.5
    S1291.3,173.7,1290.4,173.7z"/>
  <path class="st0" d="M1418.4,173.7h-34.3c-0.8,0-1.5-0.7-1.5-1.5s0.7-1.5,1.5-1.5h34.3c0.8,0,1.5,0.7,1.5,1.5
    S1419.2,173.7,1418.4,173.7z"/>
  <path class="st0" d="M1377.7,132.9h-18.4c-0.8,0-1.5-0.7-1.5-1.5s0.7-1.5,1.5-1.5h18.4c0.8,0,1.5,0.7,1.5,1.5
    S1378.6,132.9,1377.7,132.9z"/>
  <path class="st0" d="M1259.5,234.8h-12.4c-0.8,0-1.5-0.7-1.5-1.5s0.7-1.5,1.5-1.5h12.4c0.8,0,1.5,0.7,1.5,1.5
    S1260.3,234.8,1259.5,234.8z"/>
  <path class="st0" d="M1296.8,234.8h-24.2c-0.8,0-1.5-0.7-1.5-1.5s0.7-1.5,1.5-1.5h24.2c0.8,0,1.5,0.7,1.5,1.5
    S1297.7,234.8,1296.8,234.8z"/>
  <path class="st0" d="M1337.3,234.8h-14.2c-0.8,0-1.5-0.7-1.5-1.5s0.7-1.5,1.5-1.5h14.2c0.8,0,1.5,0.7,1.5,1.5
    S1338.1,234.8,1337.3,234.8z"/>
  <path class="st0" d="M1389.6,234.8h-37.5c-0.8,0-1.5-0.7-1.5-1.5s0.7-1.5,1.5-1.5h37.5c0.8,0,1.5,0.7,1.5,1.5
    S1390.5,234.8,1389.6,234.8z"/>
  <path class="st0" d="M1445,234.8h-20.1c-0.8,0-1.5-0.7-1.5-1.5s0.7-1.5,1.5-1.5h20.1c0.8,0,1.5,0.7,1.5,1.5
    S1445.8,234.8,1445,234.8z"/>
  <path class="st0" d="M1401.6,194h-42.3c-0.8,0-1.5-0.7-1.5-1.5s0.7-1.5,1.5-1.5h42.3c0.8,0,1.5,0.7,1.5,1.5S1402.4,194,1401.6,194z
    "/>
  <path class="st0" d="M1351.2,214.3h-28.7c-0.8,0-1.5-0.7-1.5-1.5s0.7-1.5,1.5-1.5h28.7c0.8,0,1.5,0.7,1.5,1.5
    S1352,214.3,1351.2,214.3z"/>
  <path class="st0" d="M1377.7,214.3h-10.6c-0.8,0-1.5-0.7-1.5-1.5s0.7-1.5,1.5-1.5h10.6c0.8,0,1.5,0.7,1.5,1.5
    S1378.6,214.3,1377.7,214.3z"/>
  <path class="st0" d="M1280.2,296.4h-27.1c-0.8,0-1.5-0.7-1.5-1.5s0.7-1.5,1.5-1.5h27.1c0.8,0,1.5,0.7,1.5,1.5
    C1281.7,295.7,1281,296.4,1280.2,296.4z"/>
  <path class="st0" d="M1322.5,296.4h-26.2c-0.8,0-1.5-0.7-1.5-1.5s0.7-1.5,1.5-1.5h26.2c0.8,0,1.5,0.7,1.5,1.5
    S1323.3,296.4,1322.5,296.4z"/>
  <path class="st0" d="M1389.6,296.4h-49.4c-0.8,0-1.5-0.7-1.5-1.5s0.7-1.5,1.5-1.5h49.4c0.8,0,1.5,0.7,1.5,1.5
    S1390.5,296.4,1389.6,296.4z"/>
  <path class="st0" d="M1262.7,316.3h-29c-0.8,0-1.5-0.7-1.5-1.5s0.7-1.5,1.5-1.5h29c0.8,0,1.5,0.7,1.5,1.5
    S1263.5,316.3,1262.7,316.3z"/>
  <path class="st0" d="M1442.5,336.5h-24.2c-0.8,0-1.5-0.7-1.5-1.5s0.7-1.5,1.5-1.5h24.2c0.8,0,1.5,0.7,1.5,1.5
    S1443.4,336.5,1442.5,336.5z"/>
  <path class="st0" d="M1305.3,275.4h-15.2c-0.8,0-1.5-0.7-1.5-1.5s0.7-1.5,1.5-1.5h15.2c0.8,0,1.5,0.6,1.5,1.5
    C1306.8,274.8,1306.1,275.4,1305.3,275.4z"/>
  <path class="st0" d="M1350.5,275.4h-28.9c-0.8,0-1.5-0.7-1.5-1.5s0.7-1.5,1.5-1.5h28.9c0.8,0,1.5,0.7,1.5,1.5
    S1351.3,275.4,1350.5,275.4z"/>
  <path class="st0" d="M1447.8,275.4h-29.5c-0.8,0-1.5-0.7-1.5-1.5s0.7-1.5,1.5-1.5h29.5c0.8,0,1.5,0.7,1.5,1.5
    S1448.6,275.4,1447.8,275.4z"/>
  <path class="st0" d="M1339.6,377.4h-42.4c-0.8,0-1.5-0.7-1.5-1.5s0.7-1.5,1.5-1.5h42.4c0.8,0,1.5,0.7,1.5,1.5
    S1340.4,377.4,1339.6,377.4z"/>
  <path class="st0" d="M1374.8,377.4h-20.7c-0.8,0-1.5-0.7-1.5-1.5s0.7-1.5,1.5-1.5h20.7c0.8,0,1.5,0.7,1.5,1.5
    C1376.3,376.7,1375.6,377.4,1374.8,377.4L1374.8,377.4z"/>
  <path class="st0" d="M1441.1,397.7h-22.8c-0.8,0-1.5-0.7-1.5-1.5s0.7-1.5,1.5-1.5h22.8c0.8,0,1.5,0.7,1.5,1.5
    S1442,397.7,1441.1,397.7z"/>
  <path class="st0" d="M1388.6,336.6h-30.3c-0.8,0-1.5-0.7-1.5-1.5s0.7-1.5,1.5-1.5h30.3c0.8,0,1.5,0.7,1.5,1.5
    S1389.5,336.6,1388.6,336.6z"/>
  <path class="st0" d="M1320.6,356.9h-9.2c-0.8,0-1.5-0.7-1.5-1.5s0.7-1.5,1.5-1.5h9.2c0.8,0,1.5,0.7,1.5,1.5
    S1321.5,356.9,1320.6,356.9z"/>
  <path class="st0" d="M1354.1,356.9h-21.1c-0.8,0-1.5-0.7-1.5-1.5s0.7-1.5,1.5-1.5h21.1c0.8,0,1.5,0.7,1.5,1.5
    S1354.9,356.9,1354.1,356.9z"/>
  <path class="st0" d="M1442.3,356.9h-23.9c-0.8,0-1.5-0.7-1.5-1.5s0.7-1.5,1.5-1.5h23.9c0.8,0,1.5,0.7,1.5,1.5
    S1443.1,356.9,1442.3,356.9z"/>
  <path class="st0" d="M1388.9,438.5h-51.3c-0.8,0-1.5-0.7-1.5-1.5s0.7-1.5,1.5-1.5h51.3c0.8,0,1.5,0.7,1.5,1.5
    S1389.8,438.5,1388.9,438.5z"/>
  <path class="st0" d="M1393.5,458.8h-27.1c-0.8,0-1.5-0.7-1.5-1.5s0.7-1.5,1.5-1.5h27.1c0.8,0,1.5,0.7,1.5,1.5
    S1394.3,458.8,1393.5,458.8z"/>
  <path class="st0" d="M1351.9,418h-41.8c-0.8,0-1.5-0.7-1.5-1.5s0.7-1.5,1.5-1.5h41.8c0.8,0,1.5,0.7,1.5,1.5S1352.7,418,1351.9,418z
    "/>
  <path class="st0" d="M1388.9,418h-12.6c-0.8,0-1.5-0.7-1.5-1.5s0.7-1.5,1.5-1.5h12.6c0.8,0,1.5,0.7,1.5,1.5S1389.8,418,1388.9,418z
    "/>
  <path class="st0" d="M1320.8,520h-46c-0.8,0-1.5-0.7-1.5-1.5s0.7-1.5,1.5-1.5h46c0.8,0,1.5,0.7,1.5,1.5S1321.6,520,1320.8,520z"/>
  <path class="st0" d="M1392,520h-57.6c-0.8,0-1.5-0.7-1.5-1.5s0.7-1.5,1.5-1.5h57.6c0.8,0,1.5,0.7,1.5,1.5S1392.8,520,1392,520z"/>
  <path class="st0" d="M1277.3,540.3h-56.6c-0.8,0-1.5-0.7-1.5-1.5s0.7-1.5,1.5-1.5h56.6c0.8,0,1.5,0.7,1.5,1.5
    S1278.1,540.3,1277.3,540.3z"/>
  <path class="st0" d="M1322.7,540.3h-29.6c-0.8,0-1.5-0.7-1.5-1.5s0.7-1.5,1.5-1.5h29.6c0.8,0,1.5,0.7,1.5,1.5
    C1324.2,539.6,1323.5,540.3,1322.7,540.3z"/>
  <path class="st0" d="M1299.5,479.2h-14.1c-0.8,0-1.5-0.7-1.5-1.5s0.7-1.5,1.5-1.5h14.1c0.8,0,1.5,0.7,1.5,1.5
    S1300.3,479.2,1299.5,479.2z"/>
  <path class="st0" d="M1443.9,479.2h-22.8c-0.8,0-1.5-0.7-1.5-1.5s0.7-1.5,1.5-1.5h22.9c0.8,0,1.5,0.7,1.5,1.5
    C1445.4,478.5,1444.7,479.2,1443.9,479.2z"/>
  <path class="st0" d="M1324.7,499.5h-33.6c-0.8,0-1.5-0.7-1.5-1.5s0.7-1.5,1.5-1.5h33.6c0.8,0,1.5,0.7,1.5,1.5
    S1325.5,499.5,1324.7,499.5z"/>
  <path class="st0" d="M1359.3,499.5H1345c-0.8,0-1.5-0.7-1.5-1.5s0.7-1.5,1.5-1.5h14.3c0.8,0,1.5,0.7,1.5,1.5
    S1360.1,499.5,1359.3,499.5z"/>
  <path class="st0" d="M1208.6,601.4h-16.5c-0.8,0-1.5-0.7-1.5-1.5s0.7-1.5,1.5-1.5h16.5c0.8,0,1.5,0.7,1.5,1.5
    C1210.1,600.7,1209.4,601.4,1208.6,601.4z"/>
  <path class="st0" d="M1407.4,601.4h-35.6c-0.8,0-1.5-0.7-1.5-1.5s0.7-1.5,1.5-1.5h35.6c0.8,0,1.5,0.7,1.5,1.5
    S1408.2,601.4,1407.4,601.4z"/>
  <path class="st0" d="M1441.4,601.4h-19.2c-0.8,0-1.5-0.7-1.5-1.5s0.7-1.5,1.5-1.5h19.2c0.8,0,1.5,0.7,1.5,1.5
    S1442.2,601.4,1441.4,601.4z"/>
  <path class="st0" d="M1355.6,621.7h-13.4c-0.8,0-1.5-0.7-1.5-1.5s0.7-1.5,1.5-1.5h13.4c0.8,0,1.5,0.7,1.5,1.5
    S1356.5,621.7,1355.6,621.7z"/>
  <path class="st0" d="M1326.4,621.7h-26c-0.8,0-1.5-0.7-1.5-1.5s0.7-1.5,1.5-1.5h26c0.8,0,1.5,0.7,1.5,1.5
    S1327.2,621.7,1326.4,621.7z"/>
  <path class="st0" d="M1150.2,621.7h-21.8c-0.8,0-1.5-0.7-1.5-1.5s0.7-1.5,1.5-1.5h21.8c0.8,0,1.5,0.7,1.5,1.5
    S1151,621.7,1150.2,621.7z"/>
  <path class="st0" d="M1117.1,621.7h-63c-0.8,0-1.5-0.7-1.5-1.5s0.7-1.5,1.5-1.5h63c0.8,0,1.5,0.7,1.5,1.5
    S1117.9,621.7,1117.1,621.7z"/>
  <path class="st0" d="M1217.8,621.7h-50.5c-0.8,0-1.5-0.7-1.5-1.5s0.7-1.5,1.5-1.5h50.5c0.8,0,1.5,0.7,1.5,1.5
    S1218.7,621.7,1217.8,621.7z"/>
  <path class="st0" d="M1386.3,642h-65.9c-0.8,0-1.5-0.7-1.5-1.5s0.7-1.5,1.5-1.5h65.9c0.8,0,1.5,0.7,1.5,1.5S1387.1,642,1386.3,642z
    "/>
  <path class="st0" d="M1185.6,642h-36.7c-0.8,0-1.5-0.7-1.5-1.5s0.7-1.5,1.5-1.5h36.7c0.8,0,1.5,0.7,1.5,1.5S1186.4,642,1185.6,642z
    "/>
  <path class="st0" d="M1078.1,642h-18.9c-0.8,0-1.5-0.7-1.5-1.5s0.7-1.5,1.5-1.5h18.9c0.8,0,1.5,0.7,1.5,1.5S1079,642,1078.1,642z"
    />
  <path class="st0" d="M1046.2,642h-67.9c-0.8,0-1.5-0.7-1.5-1.5s0.7-1.5,1.5-1.5h67.9c0.8,0,1.5,0.7,1.5,1.5
    C1047.7,641.4,1047.1,642,1046.2,642z"/>
  <path class="st0" d="M322.2,621.7h-16.7c-0.8,0-1.5-0.7-1.5-1.5s0.7-1.5,1.5-1.5h16.7c0.8,0,1.5,0.7,1.5,1.5
    C323.7,621.1,323.1,621.7,322.2,621.7z"/>
  <path class="st0" d="M64.5,621.7H44.7c-0.8,0-1.5-0.7-1.5-1.5s0.7-1.5,1.5-1.5h19.8c0.8,0,1.5,0.7,1.5,1.5S65.3,621.7,64.5,621.7z"
    />
  <path class="st0" d="M352.1,621.7h-17.8c-0.8,0-1.5-0.7-1.5-1.5s0.7-1.5,1.5-1.5h17.8c0.8,0,1.5,0.7,1.5,1.5S353,621.7,352.1,621.7
    z"/>
  <path class="st0" d="M352.9,642H287c-0.8,0-1.5-0.7-1.5-1.5s0.7-1.5,1.5-1.5h65.9c0.8,0,1.5,0.7,1.5,1.5S353.7,642,352.9,642z"/>
  <path class="st0" d="M272.2,642h-60.5c-0.8,0-1.5-0.7-1.5-1.5s0.7-1.5,1.5-1.5h60.5c0.8,0,1.5,0.7,1.5,1.5S273,642,272.2,642z"/>
  <path class="st0" d="M183.7,642h-15.9c-0.8,0-1.5-0.7-1.5-1.5s0.7-1.5,1.5-1.5h15.9c0.8,0,1.5,0.6,1.5,1.5
    C185.2,641.3,184.6,642,183.7,642C183.7,642,183.7,642,183.7,642z"/>
  <path class="st0" d="M97.8,642h-72c-0.8,0-1.5-0.7-1.5-1.5s0.7-1.5,1.5-1.5h72c0.8,0,1.5,0.7,1.5,1.5S98.7,642,97.8,642z"/>
  <path class="st0" d="M433.6,642h-65.9c-0.8,0-1.5-0.7-1.5-1.5s0.7-1.5,1.5-1.5h65.9c0.8,0,1.5,0.7,1.5,1.5
    C435.1,641.4,434.4,642,433.6,642z"/>
  <path class="st0" d="M1274.7,560.6h-13.3c-0.8,0-1.5-0.7-1.5-1.5s0.7-1.5,1.5-1.5h13.3c0.8,0,1.5,0.7,1.5,1.5
    S1275.6,560.6,1274.7,560.6z"/>
  <path class="st0" d="M190.5,586.1c-3.6,0-6.5-2.9-6.5-6.5c0-3.6,2.9-6.5,6.5-6.5c3.6,0,6.5,2.9,6.5,6.5l0,0
    C197,583.2,194.1,586.1,190.5,586.1z M190.5,576.1c-1.9,0-3.5,1.6-3.5,3.5c0,1.9,1.6,3.5,3.5,3.5c1.9,0,3.5-1.6,3.5-3.5l0,0
    C194,577.7,192.5,576.1,190.5,576.1C190.5,576.1,190.5,576.1,190.5,576.1L190.5,576.1z"/>
  <path class="st0" d="M241.9,435.4c-3.6,0-6.5-2.9-6.5-6.5c0-3.6,2.9-6.5,6.5-6.5c3.6,0,6.5,2.9,6.5,6.5l0,0
    C248.4,432.5,245.5,435.4,241.9,435.4z M241.9,425.4c-1.9,0-3.5,1.6-3.5,3.5c0,1.9,1.6,3.5,3.5,3.5s3.5-1.6,3.5-3.5l0,0
    C245.4,427,243.9,425.4,241.9,425.4C241.9,425.4,241.9,425.4,241.9,425.4L241.9,425.4z"/>
  <path class="st0" d="M342.6,424c-3.6,0-6.5-2.9-6.5-6.5c0-3.6,2.9-6.5,6.5-6.5c3.6,0,6.5,2.9,6.5,6.5l0,0
    C349.1,421.1,346.2,424,342.6,424z M342.6,414c-1.9,0-3.5,1.6-3.5,3.5c0,1.9,1.6,3.5,3.5,3.5c1.9,0,3.5-1.6,3.5-3.5l0,0
    C346.2,415.6,344.6,414,342.6,414C342.7,414,342.7,414,342.6,414L342.6,414z"/>
  <path class="st0" d="M56.4,402.7c-3.6,0-6.5-2.9-6.5-6.5c0-3.6,2.9-6.5,6.5-6.5s6.5,2.9,6.5,6.5l0,0
    C62.9,399.8,60,402.7,56.4,402.7z M56.4,392.7c-1.9,0-3.5,1.6-3.5,3.5c0,1.9,1.6,3.5,3.5,3.5s3.5-1.6,3.5-3.5l0,0
    C59.9,394.3,58.4,392.7,56.4,392.7C56.4,392.7,56.4,392.7,56.4,392.7L56.4,392.7z"/>
  <path class="st0" d="M113.2,219.3c-3.6,0-6.5-2.9-6.5-6.5c0-3.6,2.9-6.5,6.5-6.5c3.6,0,6.5,2.9,6.5,6.5l0,0
    C119.7,216.4,116.8,219.3,113.2,219.3z M113.2,209.3c-1.9,0-3.5,1.6-3.5,3.5c0,1.9,1.6,3.5,3.5,3.5s3.5-1.6,3.5-3.5l0,0
    C116.7,210.9,115.1,209.3,113.2,209.3C113.2,209.3,113.2,209.3,113.2,209.3L113.2,209.3z"/>
  <path class="st0" d="M315.1,36.1c-3.6,0-6.5-2.9-6.5-6.5c0-3.6,2.9-6.5,6.5-6.5c3.6,0,6.5,2.9,6.5,6.5
    C321.6,33.2,318.7,36.1,315.1,36.1z M315.1,26.1c-1.9,0-3.5,1.6-3.5,3.5c0,1.9,1.6,3.5,3.5,3.5c1.9,0,3.5-1.6,3.5-3.5
    S317,26.1,315.1,26.1C315.1,26.1,315.1,26.1,315.1,26.1z"/>
  <path class="st0" d="M1382.8,137.9c-3.6,0-6.5-2.9-6.5-6.5s2.9-6.5,6.5-6.5s6.5,2.9,6.5,6.5C1389.3,135,1386.3,137.9,1382.8,137.9z
     M1382.8,127.9c-1.9,0-3.5,1.6-3.5,3.5s1.6,3.5,3.5,3.5s3.5-1.6,3.5-3.5C1386.3,129.4,1384.7,127.9,1382.8,127.9
    C1382.8,127.9,1382.8,127.9,1382.8,127.9L1382.8,127.9z"/>
  <path class="st0" d="M1183.5,427.3c-3.6,0-6.5-2.9-6.5-6.5c0-3.6,2.9-6.5,6.5-6.5s6.5,2.9,6.5,6.5l0,0
    C1190,424.4,1187.1,427.3,1183.5,427.3z M1183.5,417.3c-1.9,0-3.5,1.6-3.5,3.5c0,1.9,1.6,3.5,3.5,3.5c1.9,0,3.5-1.6,3.5-3.5l0,0
    C1187,418.9,1185.4,417.3,1183.5,417.3C1183.5,417.3,1183.5,417.3,1183.5,417.3L1183.5,417.3z"/>
  <path class="st0" d="M1237.8,626.7c-3.6,0-6.5-2.9-6.5-6.5c0-3.6,2.9-6.5,6.5-6.5s6.5,2.9,6.5,6.5l0,0
    C1244.3,623.8,1241.4,626.7,1237.8,626.7z M1237.8,616.7c-1.9,0-3.5,1.6-3.5,3.5c0,1.9,1.6,3.5,3.5,3.5c1.9,0,3.5-1.6,3.5-3.5l0,0
    C1241.4,618.3,1239.8,616.7,1237.8,616.7C1237.8,616.7,1237.8,616.7,1237.8,616.7L1237.8,616.7z"/>
</g>
<g id="overlay">
  <path class="st0" d="M1077.5,149.2h-16.8c-1.3,0-2.4-1.1-2.4-2.4c0-1.3,1.1-2.4,2.4-2.4h16.8c7.9,0,14.4-6.5,14.4-14.4
    s-6.5-14.4-14.4-14.4c-1.7,0-3.3,0.3-4.9,0.9c-1,0.4-2.2,0-2.8-0.9c-0.6-0.9-0.5-2.2,0.3-3c1.7-1.8,2.6-4.1,2.6-6.6
    c0-5.3-4.3-9.6-9.6-9.6c-3.1,0-5.9,1.4-7.7,3.9c-1.1,1.5-1.7,3.3-1.9,5.1c-0.1,1-0.8,1.9-1.7,2.2s-2-0.1-2.6-0.9l0,0
    c-0.5-0.7-1.1-1.5-1.7-2.1c-4.6-5.1-11.1-8.1-18-8.1c-13.2,0-24,10.8-24,24s10.8,24,24,24h12c1.3,0,2.4,1.1,2.4,2.4
    c0,1.3-1.1,2.4-2.4,2.4h-12c-15.9,0-28.8-12.9-28.8-28.8s12.9-28.8,28.8-28.8c7.7,0,15.1,3.1,20.5,8.5c0.4-0.9,0.9-1.8,1.6-2.7
    c2.7-3.7,7-5.9,11.6-5.9c7.9,0,14.4,6.5,14.4,14.4c0,1.7-0.3,3.3-0.8,4.9c0.3,0,0.6,0,0.9,0c10.6,0,19.2,8.6,19.2,19.2
    S1088,149.2,1077.5,149.2L1077.5,149.2z"/>
  <path class="st0" d="M1062.3,130.7l-9.6-9.6c-0.9-0.9-2.5-0.9-3.4,0l-9.6,9.6c-0.9,0.9-0.9,2.5,0,3.4c0.9,0.9,2.5,0.9,3.4,0
    l5.5-5.5v18.2c0,1.3,1.1,2.4,2.4,2.4s2.4-1.1,2.4-2.4v-18.2l5.5,5.5c0.5,0.5,1.1,0.7,1.7,0.7s1.2-0.2,1.7-0.7
    C1063.3,133.1,1063.3,131.6,1062.3,130.7z"/>
  <g>
    <g>
      <path class="st0" d="M1164,554c-1.6,0-3,1.3-3,3v5.9c0,1.8-0.7,3.5-2,4.8c-1.3,1.3-3,2-4.8,2c-4.5,0-8.2-3.7-8.2-8.2v-12.5
        c0-4.4-1.7-8.6-4.8-11.7c-2.4-2.4-5.4-4-8.7-4.6v-5.4h4.6c1.6,0,3-1.3,3-3c0-1.6-1.3-3-3-3h-4.6v-48.2c0-6.4-2.5-12.4-7-16.9
        c-4.5-4.5-10.5-7-16.9-7c-13.2,0-23.9,10.7-23.9,23.9v48.2h-4.6c-1.6,0-3,1.3-3,3c0,1.6,1.3,3,3,3h4.6v5.4
        c-7.7,1.4-13.6,8.1-13.6,16.2v12.5c0,2.2-0.8,4.2-2.4,5.8c-1.5,1.5-3.6,2.4-5.8,2.4c-3.7,0-6.8-3-6.8-6.8V557c0-1.6-1.3-3-3-3
        s-3,1.3-3,3v5.9c0,7,5.7,12.7,12.7,12.7c3.8,0,7.3-1.5,10-4.1c2.7-2.7,4.1-6.2,4.1-10v-12.5c0-4.8,3.2-8.9,7.6-10.2v39.9
        c0,1.6,1.3,3,3,3c1.6,0,3-1.3,3-3v-43.3v-11.1v-51.2c0-9.9,8.1-18,18-18c4.8,0,9.3,1.9,12.7,5.3c3.4,3.4,5.3,7.9,5.3,12.7v51.2
        v11.1v43.3c0,1.6,1.3,3,3,3c1.6,0,3-1.3,3-3v-39.9c1.7,0.5,3.2,1.4,4.5,2.7c2,2,3.1,4.7,3.1,7.5v12.5c0,7.8,6.3,14.1,14.1,14.1
        c3.4,0,6.6-1.3,9-3.7c2.4-2.4,3.7-5.6,3.7-9V557C1167,555.4,1165.7,554,1164,554z"/>
    </g>
  </g>
  <g>
    <g>
      <path class="st0" d="M1101.7,532.4c-1.6,0-3,1.3-3,3v55.4c0,1.6,1.3,3,3,3c1.6,0,3-1.3,3-3v-55.4
        C1104.7,533.7,1103.4,532.4,1101.7,532.4z"/>
    </g>
  </g>
  <g>
    <g>
      <path class="st0" d="M1115.7,569.5c-1.6,0-3,1.3-3,3v18.3c0,1.6,1.3,3,3,3c1.6,0,3-1.3,3-3v-18.3
        C1118.6,570.8,1117.3,569.5,1115.7,569.5z"/>
    </g>
  </g>
  <g>
    <g>
      <path class="st0" d="M1115.7,559.2c-1.6,0-3,1.3-3,3v2c0,1.6,1.3,3,3,3c1.6,0,3-1.3,3-3v-2
        C1118.6,560.5,1117.3,559.2,1115.7,559.2z"/>
    </g>
  </g>
  <g>
    <g>
      <path class="st0" d="M1115.7,532.4c-1.6,0-3,1.3-3,3v18.5c0,1.6,1.3,3,3,3c1.6,0,3-1.3,3-3v-18.5
        C1118.6,533.7,1117.3,532.4,1115.7,532.4z"/>
    </g>
  </g>
  <g>
    <g>
      <path class="st0" d="M1099.9,498.9c-1.6,0-3,1.3-3,3v4.9c0,1.6,1.3,3,3,3s3-1.3,3-3v-4.9C1102.9,500.2,1101.5,498.9,1099.9,498.9
        z"/>
    </g>
  </g>
  <g>
    <g>
      <path class="st0" d="M1115.7,498.9c-1.6,0-3,1.3-3,3v4.9c0,1.6,1.3,3,3,3c1.6,0,3-1.3,3-3v-4.9
        C1118.6,500.2,1117.3,498.9,1115.7,498.9z"/>
    </g>
  </g>
  <g>
    <g>
      <path class="st0" d="M317.3,334.2c-1.1,0-2,0.9-2,2v4c0,1.2-0.5,2.4-1.3,3.2c-0.9,0.9-2,1.3-3.2,1.3c-3,0-5.5-2.5-5.5-5.5v-8.5
        c0-3-1.2-5.8-3.3-7.9c-1.6-1.6-3.7-2.7-5.9-3.1v-3.7h3.1c1.1,0,2-0.9,2-2c0-1.1-0.9-2-2-2H296v-32.6c0-4.3-1.7-8.4-4.7-11.4
        c-3.1-3.1-7.1-4.7-11.4-4.7c-8.9,0-16.2,7.3-16.2,16.2v32.6h-3.1c-1.1,0-2,0.9-2,2c0,1.1,0.9,2,2,2h3.1v3.7
        c-5.2,0.9-9.2,5.5-9.2,11v8.5c0,1.5-0.6,2.9-1.6,3.9c-1,1-2.4,1.6-3.9,1.6c-2.5,0-4.6-2-4.6-4.6v-4c0-1.1-0.9-2-2-2s-2,0.9-2,2v4
        c0,4.7,3.8,8.6,8.6,8.6c2.5,0,4.9-1,6.7-2.8c1.8-1.8,2.8-4.2,2.8-6.7v-8.5c0-3.3,2.2-6,5.2-6.9v27c0,1.1,0.9,2,2,2
        c1.1,0,2-0.9,2-2v-29.3v-7.5v-34.6c0-6.7,5.5-12.2,12.2-12.2c3.2,0,6.3,1.3,8.6,3.6c2.3,2.3,3.6,5.4,3.6,8.6v34.6v7.5v29.3
        c0,1.1,0.9,2,2,2c1.1,0,2-0.9,2-2v-27c1.1,0.3,2.2,0.9,3.1,1.8c1.4,1.4,2.1,3.2,2.1,5.1v8.5c0,5.3,4.3,9.5,9.5,9.5
        c2.3,0,4.4-0.9,6.1-2.5c1.6-1.6,2.5-3.8,2.5-6.1v-4C319.3,335.1,318.4,334.2,317.3,334.2z"/>
    </g>
  </g>
  <g>
    <g>
      <path class="st0" d="M275.1,319.6c-1.1,0-2,0.9-2,2v37.5c0,1.1,0.9,2,2,2c1.1,0,2-0.9,2-2v-37.5
        C277.1,320.5,276.2,319.6,275.1,319.6z"/>
    </g>
  </g>
  <g>
    <g>
      <path class="st0" d="M284.6,344.7c-1.1,0-2,0.9-2,2v12.4c0,1.1,0.9,2,2,2s2-0.9,2-2v-12.4C286.6,345.6,285.7,344.7,284.6,344.7z"
        />
    </g>
  </g>
  <g>
    <g>
      <path class="st0" d="M284.6,337.7c-1.1,0-2,0.9-2,2v1.3c0,1.1,0.9,2,2,2s2-0.9,2-2v-1.3C286.6,338.6,285.7,337.7,284.6,337.7z"/>
    </g>
  </g>
  <g>
    <g>
      <path class="st0" d="M284.6,319.6c-1.1,0-2,0.9-2,2v12.5c0,1.1,0.9,2,2,2s2-0.9,2-2v-12.5C286.6,320.5,285.7,319.6,284.6,319.6z"
        />
    </g>
  </g>
  <g>
    <g>
      <path class="st0" d="M273.9,296.9c-1.1,0-2,0.9-2,2v3.3c0,1.1,0.9,2,2,2s2-0.9,2-2v-3.3C275.9,297.8,275,296.9,273.9,296.9z"/>
    </g>
  </g>
  <g>
    <g>
      <path class="st0" d="M284.6,296.9c-1.1,0-2,0.9-2,2v3.3c0,1.1,0.9,2,2,2s2-0.9,2-2v-3.3C286.6,297.8,285.7,296.9,284.6,296.9z"/>
    </g>
  </g>
  <path class="st0" d="M320.6,503.1c-6.6,0-12.1-5.4-12.1-12.1S314,479,320.6,479c6.6,0,12.1,5.4,12.1,12.1S327.3,503.1,320.6,503.1z
     M320.6,483.8c-4,0-7.2,3.2-7.2,7.2s3.2,7.2,7.2,7.2s7.2-3.2,7.2-7.2S324.6,483.8,320.6,483.8z"/>
  <path class="st0" d="M257.9,556.1c-0.6,0-1.2-0.2-1.7-0.7c-0.7-0.7-0.9-1.6-0.6-2.5c7.4-20.4,15.2-30.8,23.2-30.8
    c2.6,0,5.1,1.1,7.3,3.3c3.5,3.5,3.6,7,3.1,9.3c-1.6,7.3-11.9,14.4-30.5,21.2C258.5,556.1,258.2,556.1,257.9,556.1L257.9,556.1z
     M278.8,527c-2.4,0-5.2,2.1-8.1,6.1c-2.9,3.9-5.8,9.4-8.6,16.5c6.4-2.6,11.6-5.2,15.4-7.8c5.1-3.5,6.7-6.3,7-7.9
    c0.4-1.7-0.2-3.3-1.8-4.9C281.4,527.6,280.2,527,278.8,527L278.8,527z"/>
  <path class="st0" d="M349.6,459.7c-12.5,0-23.7,2.1-33.2,6.3c-7.8,3.5-14.5,8.3-19.9,14.4c-1,1.1-1.9,2.3-2.8,3.4
    c-4.2,0.3-8.4,1.9-12.7,4.9c-3.6,2.5-7.2,6-10.7,10.4c-5.9,7.4-9.6,14.6-9.7,14.9c-0.5,1.1-0.2,2.3,0.7,3c0.4,0.3,0.9,0.5,1.4,0.5
    c0.6,0,1.2-0.2,1.7-0.7c0,0,2.3-2.3,6.3-4.5c3.2-1.8,8.2-4,14.3-4.4c1.5,3.9,5.9,8.6,8,10.7c2.1,2.1,6.8,6.5,10.7,8
    c-0.4,6-2.5,11-4.4,14.3c-2.2,3.9-4.5,6.2-4.5,6.3c-0.8,0.8-0.9,2.2-0.3,3.1c0.5,0.6,1.2,1,2,1c0.4,0,0.7-0.1,1.1-0.3
    c0.3-0.2,7.6-3.8,14.9-9.7c4.4-3.5,7.9-7.1,10.4-10.7c3-4.2,4.6-8.5,4.9-12.7c1.2-0.9,2.3-1.8,3.4-2.8c6.1-5.4,11-12.1,14.4-19.9
    c4.2-9.5,6.3-20.6,6.3-33.2v-2.4L349.6,459.7L349.6,459.7z M270.5,507c4.6-6.7,11.6-14.9,19.5-17.5c-3.1,5.5-4.8,10.5-5.3,13.7
    C279.1,503.5,274.3,505.1,270.5,507z M304.7,541.1c1.9-3.8,3.5-8.6,3.8-14.2c3.2-0.6,8.2-2.2,13.7-5.3
    C319.6,529.5,311.3,536.5,304.7,541.1L304.7,541.1z M328.1,511.5c-10,8.9-20.4,10.9-21.9,10.9c0,0-1,0-3.7-1.9
    c-1.9-1.3-4-3.2-6.1-5.2c-2.1-2.1-3.9-4.2-5.2-6.1c-1.9-2.7-1.9-3.7-1.9-3.7c0-1.5,2-11.9,10.9-21.9c10.6-12,26.8-18.6,47-19.1
    C346.6,484.7,340.1,500.9,328.1,511.5L328.1,511.5z"/>
  <path class="st0" d="M366.3,351.5h27.1c2.8,0,5.1-2.3,5.1-5.2v-27.7c0-2.9-2.3-5.2-5.1-5.2h-44c-2.8,0-5.1,2.3-5.1,5.2v3.5
    c0,1,0.8,1.7,1.7,1.7s1.7-0.8,1.7-1.7v-3.5c0-1,0.8-1.7,1.7-1.7h44c0.9,0,1.7,0.8,1.7,1.7v27.7c0,1-0.8,1.7-1.7,1.7h-27.1
    c-0.9,0-1.7,0.8-1.7,1.7S365.4,351.5,366.3,351.5z"/>
  <path class="st0" d="M366.3,365.3h33.8c2.8,0,5.1-2.3,5.1-5.2v-3.5c0-1-0.8-1.7-1.7-1.7h-37.2c-0.9,0-1.7,0.8-1.7,1.7
    s0.8,1.7,1.7,1.7h35.5v1.7c0,1-0.8,1.7-1.7,1.7h-33.8c-0.9,0-1.7,0.8-1.7,1.7C364.6,364.6,365.4,365.3,366.3,365.3z"/>
  <path class="st0" d="M342.7,365.3h13.5c2.8,0,5.1-2.3,5.1-5.2v-27.7c0-2.9-2.3-5.2-5.1-5.2h-13.5c-2.8,0-5.1,2.3-5.1,5.2v27.7
    C337.6,363,339.9,365.3,342.7,365.3z M356.2,330.7c0.9,0,1.7,0.8,1.7,1.7v27.7c0,1-0.8,1.7-1.7,1.7h-13.5c-0.9,0-1.7-0.8-1.7-1.7
    v-27.7c0-1,0.8-1.7,1.7-1.7H356.2z"/>
  <path class="st0" d="M349.4,358.4c0.4,0,0.9-0.2,1.2-0.5c0.3-0.3,0.5-0.8,0.5-1.2s-0.2-0.9-0.5-1.2c-0.3-0.3-0.8-0.5-1.2-0.5
    s-0.9,0.2-1.2,0.5c-0.3,0.3-0.5,0.8-0.5,1.2s0.2,0.9,0.5,1.2C348.5,358.2,349,358.4,349.4,358.4z"/>
  <path class="st0" d="M991.6,590.5h-35.1c-3.6,0-6.6-3-6.6-6.6v-35.1c0-3.6,3-6.6,6.6-6.6h57.1c3.6,0,6.6,3,6.6,6.6v4.4
    c0,1.2-1,2.2-2.2,2.2c-1.2,0-2.2-1-2.2-2.2v-4.4c0-1.2-1-2.2-2.2-2.2h-57.1c-1.2,0-2.2,1-2.2,2.2v35.1c0,1.2,1,2.2,2.2,2.2h35.1
    c1.2,0,2.2,1,2.2,2.2C993.8,589.5,992.8,590.5,991.6,590.5z"/>
  <path class="st0" d="M991.6,608.1h-43.9c-3.6,0-6.6-3-6.6-6.6v-4.4c0-1.2,1-2.2,2.2-2.2h48.3c1.2,0,2.2,1,2.2,2.2
    c0,1.2-1,2.2-2.2,2.2h-46.1v2.2c0,1.2,1,2.2,2.2,2.2h43.9c1.2,0,2.2,1,2.2,2.2C993.8,607.1,992.8,608.1,991.6,608.1z"/>
  <path class="st0" d="M1022.3,608.1h-17.6c-3.6,0-6.6-3-6.6-6.6v-35.1c0-3.6,3-6.6,6.6-6.6h17.6c3.6,0,6.6,3,6.6,6.6v35.1
    C1028.9,605.1,1026,608.1,1022.3,608.1z M1004.8,564.1c-1.2,0-2.2,1-2.2,2.2v35.1c0,1.2,1,2.2,2.2,2.2h17.6c1.2,0,2.2-1,2.2-2.2
    v-35.1c0-1.2-1-2.2-2.2-2.2H1004.8z"/>
  <path class="st0" d="M1013.5,599.3c-0.6,0-1.1-0.2-1.6-0.6c-0.4-0.4-0.6-1-0.6-1.5s0.2-1.1,0.6-1.5c0.4-0.4,1-0.6,1.6-0.6
    c0.6,0,1.1,0.2,1.5,0.6c0.4,0.4,0.6,1,0.6,1.5s-0.2,1.1-0.6,1.5C1014.7,599,1014.1,599.3,1013.5,599.3z"/>
  <path class="st0" d="M311.6,266.9c-0.7,0-1.3-0.5-1.5-1.2c-0.2-0.7,0.1-1.4,0.7-1.8c5.4-3.2,7.6-7.9,8.4-10.1c-5.8-4.5-9.2-10.7-9.2-17.1
    c0-3.3,0.8-6.4,2.4-9.4c1.5-2.8,3.8-5.4,6.6-7.6c5.7-4.4,13.2-6.9,21.2-6.9s15.5,2.4,21.2,6.9c2.8,2.2,5,4.7,6.6,7.6
    c1.6,3,2.4,6.1,2.4,9.4c0,3.3-0.8,6.4-2.4,9.4c-1.5,2.8-3.8,5.4-6.6,7.6c-5.7,4.4-13.2,6.9-21.2,6.9c-3.3,0-6.5-0.4-9.6-1.2
    c-1.4,0.9-3.9,2.5-7,4C319,265.7,314.9,266.9,311.6,266.9L311.6,266.9z M340.2,216.8c-14.4,0-26.2,9-26.2,20c0,5.6,3.1,11,8.5,14.8
    c0.5,0.4,0.8,1,0.6,1.7c-0.4,1.3-1.6,5-4.9,8.6c4-1.4,8.3-3.8,11.5-6c0.4-0.3,0.9-0.3,1.3-0.2c2.9,0.8,6,1.3,9.1,1.3
    c14.4,0,26.2-9,26.2-20S354.7,216.8,340.2,216.8z"/>
  <path class="st0" d="M1052.2,450.8c0.7,0,1.3-0.5,1.5-1.2c0.2-0.7-0.1-1.4-0.7-1.8c-5.3-3.2-7.5-7.9-8.3-10.1c5.8-4.5,9-10.7,9-17.1
    c0-3.3-0.8-6.4-2.4-9.4c-1.5-2.8-3.7-5.4-6.5-7.6c-5.6-4.4-13-6.9-20.9-6.9c-7.9,0-15.3,2.4-20.9,6.9c-2.8,2.2-4.9,4.7-6.5,7.6
    c-1.6,3-2.4,6.1-2.4,9.4s0.8,6.4,2.4,9.4c1.5,2.8,3.7,5.4,6.5,7.6c5.6,4.4,13,6.9,20.9,6.9c3.2,0,6.4-0.4,9.4-1.2
    c1.3,0.9,3.9,2.5,6.9,4C1045,449.6,1049,450.8,1052.2,450.8L1052.2,450.8z M1024,400.6c14.3,0,25.8,9,25.8,20.1
    c0,5.6-3.1,11-8.4,14.8c-0.5,0.4-0.8,1-0.6,1.7c0.4,1.3,1.6,5,4.8,8.6c-4-1.4-8.2-3.8-11.4-6c-0.4-0.3-0.8-0.3-1.3-0.2
    c-2.9,0.8-5.9,1.3-9,1.3c-14.3,0-25.8-9-25.8-20.1S1009.8,400.6,1024,400.6z"/>
</g>
</svg>
