<?xml version="1.0" encoding="utf-8"?>
<!-- Generator: Adobe Illustrator 18.0.0, SVG Export Plug-In . SVG Version: 6.00 Build 0)  -->
<!DOCTYPE svg PUBLIC "-//W3C//DTD SVG 1.1//EN" "http://www.w3.org/Graphics/SVG/1.1/DTD/svg11.dtd">
<svg version="1.1" id="Layer_1" xmlns="http://www.w3.org/2000/svg" xmlns:xlink="http://www.w3.org/1999/xlink" x="0px" y="0px"
   viewBox="0 0 150 150" enable-background="new 0 0 150 150" xml:space="preserve">
<ellipse cx="75" cy="77" rx="75" ry="72.8"/>
<g>
  <path fill="#FFFFFF" d="M52.5,106.5c4.7,2.9,11.6,5.3,18.9,5.3c10.8,0,17.1-5.7,17.1-13.9c0-7.6-4.4-12-15.4-16.2
    C59.8,76.9,51.6,70,51.6,58.6c0-12.7,10.5-22.1,26.4-22.1c8.3,0,14.4,1.9,18,4L93.1,49c-2.7-1.5-8.1-3.9-15.5-3.9
    c-11.1,0-15.4,6.7-15.4,12.2c0,7.6,5,11.4,16.2,15.7c13.8,5.3,20.8,12,20.8,24c0,12.6-9.3,23.5-28.6,23.5c-7.9,0-16.5-2.3-20.8-5.2
    L52.5,106.5z"/>
</g>
</svg>
