<svg height="512" viewBox="0 0 60 60" width="512" xmlns="http://www.w3.org/2000/svg"><g id="Page-1" fill="none" fill-rule="evenodd"><g id="053---Traffic-Lights" fill="rgb(0,0,0)" fill-rule="nonzero"><path id="Shape" d="m58 4h-15c-.0023149-2.20817941-1.7918206-3.99768506-4-4h-18c-2.2081794.00231494-3.9976851 1.79182059-4 4h-15c-1.10404407.00126747-1.99873253.89595593-2 2v.4121c.00307857 1.91376185 1.35951428 3.5580076 3.2378 3.9248 3.0249.5889 8.2812 2.1416 9.5 5.9326.53178 1.6384719 2.0640396 2.7433773 3.7866 2.7305h.4756v3h-15c-1.10404407.0012675-1.99873253.8959559-2 2v.4121c.00307857 1.9137619 1.35951428 3.5580076 3.2378 3.9248 3.0249.5889 8.2812 2.1416 9.5 5.9326.53178 1.6384719 2.0640396 2.7433773 3.7866 2.7305h.4756v3h-15c-1.10404407.0012675-1.99873253.8959559-2 2v.4121c.00307857 1.9137619 1.35951428 3.5580076 3.2378 3.9248 3.0249.5889 8.2812 2.1416 9.5 5.9326.53178 1.6384719 2.0640396 2.7433773 3.7866 2.7305h.4756v1c.0023149 2.2081794 1.7918206 3.9976851 4 4h18c2.2081794-.0023149 3.9976851-1.7918206 4-4v-1h.4756c1.7224261.0129469 3.2546438-1.0917259 3.7866-2.73 1.2188-3.791 6.4751-5.3437 9.4995-5.9326 1.8786687-.3666195 3.2354132-2.0111951 3.2383-3.9253v-.4121c-.0012675-1.1040441-.8959559-1.9987325-2-2h-15v-3h.4756c1.7224261.0129469 3.2546438-1.0917259 3.7866-2.73 1.2188-3.791 6.4751-5.3437 9.4995-5.9326 1.8786687-.3666195 3.2354132-2.0111951 3.2383-3.9253v-.4121c-.0012675-1.1040441-.8959559-1.9987325-2-2h-15v-3h.4756c1.7224261.0129469 3.2546438-1.0917259 3.7866-2.73 1.2188-3.791 6.4751-5.3437 9.4995-5.9326 1.8786687-.36661946 3.2354132-2.01119506 3.2383-3.9253v-.4121c-.0012675-1.10404407-.8959559-1.99873253-2-2zm-41.4756 13c-.8528799.0109804-1.6145372-.5319681-1.8823-1.3418-1.5337-4.77-7.564-6.6113-11.023-7.2842-.93883556-.18361641-1.61693075-1.00527965-1.6191-1.9619v-.4121h15v11zm0 18c-.8528799.0109804-1.6145372-.5319681-1.8823-1.3418-1.5337-4.7705-7.564-6.6113-11.023-7.2842-.93883556-.1836164-1.61693075-1.0052797-1.6191-1.9619v-.4121h15v11zm0 18c-.8528799.0109804-1.6145372-.5319681-1.8823-1.3418-1.5337-4.77-7.564-6.6113-11.023-7.2842-.93883556-.1836164-1.61693075-1.0052797-1.6191-1.9619v-.4121h15v11zm24.4756 3c-.0012675 1.1040441-.8959559 1.9987325-2 2h-18c-1.1040441-.0012675-1.9987325-.8959559-2-2v-52c.0012675-1.10404407.8959559-1.99873253 2-2h18c1.1040441.00126747 1.9987325.89595593 2 2zm17-14v.4121c-.0022539.956899-.6808067 1.7786601-1.62 1.9619-3.4585.6729-9.4888 2.5137-11.0225 7.2842-.2677182.8096898-1.0291668 1.3526048-1.8819 1.3418h-.4756v-11zm0-18v.4121c-.0022539.956899-.6808067 1.7786601-1.62 1.9619-3.4585.6729-9.4888 2.5137-11.0225 7.2842-.2677182.8096898-1.0291668 1.3526048-1.8819 1.3418h-.4756v-11zm0-17.5879c-.0022539.95689903-.6808067 1.77866006-1.62 1.9619-3.4585.6729-9.4888 2.5137-11.0225 7.2842-.2677182.8096898-1.0291668 1.3526048-1.8819 1.3418h-.4756v-11h15z"/><path id="Shape" d="m30 4c-4.4873 0-8.3511 2.94-8.9868 6.8389-.0472577.2895123.0349864.5851739.2249551.808697.1899686.2235231.4685009.3523625.7618449.352403 0 4.418278 3.581722 8 8 8s8-3.581722 8-8c.293344-.0000405.5718763-.1288799.7618449-.352403.1899687-.2235231.2722128-.5191847.2249551-.808697-.6357-3.8989-4.4995-6.8389-8.9868-6.8389zm0 2c2.8216085-.10439942 5.4398297 1.46339767 6.68 4h-.02c-1.4685551-.03135075-2.8980222-.47904537-4.1221-1.291-1.561072-.94638009-3.5191097-.94526212-5.0791.0029-1.2230343.81057511-2.6510665 1.25725996-4.118 1.2881h-.0208c1.2401703-2.53660233 3.8583915-4.10439942 6.68-4zm0 12c-3.3122007-.0036374-5.9963626-2.6877993-6-6h.24c1.6675145-.037488 3.2793455-.6072352 4.6-1.626.3307681-.232335.7244016-.3585237 1.1286-.3618h.0666c.4005446.0031325.7906935.1278351 1.1188.3576 1.3219988 1.0210563 2.9360296 1.5923096 4.606 1.6302h.24c-.0036374 3.3122007-2.6877993 5.9963626-6 6z"/><path id="Shape" d="m30 22c-4.4873 0-8.3511 2.94-8.9868 6.8389-.0472577.2895123.0349864.5851739.2249551.808697.1899686.2235231.4685009.3523625.7618449.352403 0 4.418278 3.581722 8 8 8s8-3.581722 8-8c.293344-.0000405.5718763-.1288799.7618449-.352403.1899687-.2235231.2722128-.5191847.2249551-.808697-.6357-3.8989-4.4995-6.8389-8.9868-6.8389zm0 2c2.8216085-.1043994 5.4398297 1.4633977 6.68 4h-.02c-1.4685551-.0313507-2.8980222-.4790454-4.1221-1.291-1.561072-.9463801-3.5191097-.9452621-5.0791.0029-1.2230343.8105751-2.6510665 1.25726-4.118 1.2881h-.0208c1.2401703-2.5366023 3.8583915-4.1043994 6.68-4zm0 12c-3.3122007-.0036374-5.9963626-2.6877993-6-6 0-.0184.0016-.0326.0018-.0507 1.6069476-.1376887 3.1558734-.6661272 4.5119-1.5393.916573-.5351323 2.0500469-.5362781 2.9677-.003 1.3573504.8746091 2.9079884 1.404019 4.5168 1.5421 0 .0181.0018.0323.0018.0507-.0035272 3.3122788-2.6877214 5.9965624-6 6.0002z"/><path id="Shape" d="m30 40c-4.4873 0-8.3511 2.94-8.9868 6.8389-.0472577.2895123.0349864.5851739.2249551.808697.1899686.2235231.4685009.3523625.7618449.352403 0 4.418278 3.581722 8 8 8s8-3.581722 8-8c.293344-.0000405.5718763-.1288799.7618449-.352403.1899687-.2235231.2722128-.5191847.2249551-.808697-.6357-3.8989-4.4995-6.8389-8.9868-6.8389zm0 2c2.8216085-.1043994 5.4398297 1.4633977 6.68 4h-.02c-1.4685551-.0313507-2.8980222-.4790454-4.1221-1.291-1.561072-.9463801-3.5191097-.9452621-5.0791.0029-1.2230343.8105751-2.6510665 1.25726-4.118 1.2881h-.0208c1.2401703-2.5366023 3.8583915-4.1043994 6.68-4zm0 12c-3.3122007-.0036374-5.9963626-2.6877993-6-6 0-.0184.0016-.0326.0018-.0507 1.6069476-.1376887 3.1558734-.6661272 4.5119-1.5393.916573-.5351323 2.0500469-.5362781 2.9677-.003 1.3573504.8746091 2.9079884 1.404019 4.5168 1.5421 0 .0181.0018.0323.0018.0507-.0035272 3.3122788-2.6877214 5.9965624-6 6.0002z"/></g></g></svg>